<svg width="46" height="45" viewBox="0 0 46 45" fill="none" xmlns="http://www.w3.org/2000/svg">
<g clipPath="url(#clip0_1_205)">
<path fill-rule="evenodd" clip-rule="evenodd" d="M5.78264 21.7355C5.78264 18.8996 8.07993 16.5997 10.9148 16.5997C13.7497 16.5997 16.047 18.8996 16.047 21.7355C16.047 24.5715 13.7497 26.8713 10.9148 26.8713C8.07993 26.8713 5.78264 24.5715 5.78264 21.7355ZM0.784241 38.242C0.784241 33.1205 4.93603 28.9688 10.0576 28.9688H11.7751C14.3609 28.9688 16.6994 30.0271 18.3813 31.7341C14.8178 32.9797 12.0813 35.9892 11.2161 39.717H2.25918C1.44459 39.717 0.784241 39.0566 0.784241 38.242ZM34.6153 39.7171H43.5727C44.3873 39.7171 45.0476 39.0568 45.0476 38.2421C45.0476 33.1207 40.8959 28.9689 35.7744 28.9689H34.0567C31.471 28.9689 29.1325 30.0272 27.4507 31.7342C31.0139 32.98 33.7504 35.9893 34.6153 39.7171ZM29.7818 21.7357C29.7818 18.8997 32.0791 16.5998 34.914 16.5998C37.7489 16.5998 40.0462 18.8997 40.0462 21.7357C40.0462 24.5717 37.7489 26.8715 34.914 26.8715C32.0791 26.8715 29.7818 24.5717 29.7818 21.7357Z" fill="#01E0B5" fill-opacity="0.6"/>
<path fill-rule="evenodd" clip-rule="evenodd" d="M17.7834 25.7388C17.7834 22.9028 20.0808 20.6029 22.9157 20.6029C25.7506 20.6029 28.0478 22.9028 28.0478 25.7388C28.0478 28.5748 25.7506 30.8746 22.9157 30.8746C20.0808 30.8746 17.7834 28.5748 17.7834 25.7388ZM12.785 42.2452C12.785 37.1238 16.9369 32.9719 22.0584 32.9719H23.776C28.8975 32.9719 33.0492 37.1238 33.0492 42.2452C33.0492 43.0599 32.3889 43.7202 31.5743 43.7202H14.26C13.4454 43.7202 12.785 43.0599 12.785 42.2452Z" fill="#01E0B5" fill-opacity="0.6"/>
<path d="M22.2227 1.64556C22.4411 0.992496 23.3922 0.992494 23.6107 1.64556L24.6251 4.67865C24.7229 4.97071 25.003 5.16845 25.3192 5.16845H28.6022C29.3091 5.16845 29.603 6.04715 29.0311 6.45076L26.3751 8.32532C26.1193 8.50582 26.0123 8.82577 26.11 9.11783L27.1245 12.1509C27.343 12.804 26.5735 13.347 26.0016 12.9434L23.3456 11.0689C23.0898 10.8884 22.7435 10.8884 22.4878 11.0689L19.8317 12.9434C19.2598 13.347 18.4904 12.804 18.7088 12.1509L19.7233 9.11783C19.821 8.82577 19.714 8.50582 19.4583 8.32532L16.8022 6.45076C16.2303 6.04715 16.5242 5.16845 17.2311 5.16845H20.5142C20.8302 5.16845 21.1105 4.97071 21.2082 4.67865L22.2227 1.64556Z" fill="#01E0B5"/>
</g>
<defs>
<clipPath id="clip0_1_205">
<rect width="45.8333" height="44" fill="white" transform="translate(0 0.238281)"/>
</clipPath>
</defs>
</svg>
