<svg width="44" height="45" viewBox="0 0 44 45" fill="none" xmlns="http://www.w3.org/2000/svg">
<g clipPath="url(#clip0_1_214)">
<path fill-rule="evenodd" clip-rule="evenodd" d="M33.9166 22.2365C33.9166 28.8179 28.5814 34.1532 22 34.1532C15.4186 34.1532 10.0833 28.8179 10.0833 22.2365C10.0833 15.6551 15.4186 10.3198 22 10.3198C28.5814 10.3198 33.9166 15.6551 33.9166 22.2365ZM21.8741 14.7931C22.3803 14.7962 22.7882 15.2091 22.785 15.7155L22.7806 16.4597L24.6724 16.4711C25.1786 16.4741 25.5866 16.887 25.5838 17.3934C25.581 17.8997 25.1684 18.3077 24.6622 18.3047L20.7347 18.281C19.9221 18.2762 19.2596 18.9312 19.2551 19.744C19.2505 20.5569 19.9056 21.2198 20.7182 21.2248L22.9596 21.2383C24.7845 21.2492 26.2555 22.738 26.2454 24.5636C26.2351 26.3891 24.7473 27.8601 22.9224 27.8492L22.716 27.8479L22.7132 28.5209C22.7111 29.0272 22.2989 29.4359 21.7927 29.4338C21.2867 29.4317 20.878 29.0195 20.8801 28.5131L20.883 27.8369L18.9949 27.8255C18.4888 27.8225 18.0807 27.4095 18.0835 26.9032C18.0864 26.3969 18.4991 25.9889 19.0052 25.9919L22.9327 26.0156C23.7453 26.0204 24.4077 25.3654 24.4123 24.5526C24.4169 23.7397 23.7618 23.0767 22.9492 23.0719L20.7079 23.0584C18.883 23.0474 17.4118 21.5586 17.4221 19.733C17.4323 17.9075 18.9201 16.4365 20.745 16.4474L20.9476 16.4486L20.9521 15.7043C20.9552 15.1981 21.368 14.79 21.8741 14.7931Z" fill="#01E0B5"/>
<path fill-rule="evenodd" clip-rule="evenodd" d="M41.3311 19.0073C41.0862 19.3145 40.7411 19.5457 40.3297 19.6453C40.1052 19.6996 39.8804 19.7101 39.6643 19.6822C39.4194 19.6642 39.1737 19.6014 38.9388 19.4893L34.3804 17.3162C33.4665 16.8805 33.0787 15.7864 33.5145 14.8724C33.9502 13.9584 35.0443 13.5707 35.9584 14.0065L36.574 14.2999C33.7727 9.16298 28.3225 5.67826 22.0614 5.67826C17.0957 5.67826 12.6399 7.87001 9.61124 11.34C9.56614 11.4092 9.51582 11.4762 9.46036 11.5404C9.09874 11.9586 8.76078 12.3921 8.44677 12.8392C7.47382 14.252 6.7151 15.8238 6.21761 17.5079C6.17841 17.6405 6.12553 17.7655 6.06095 17.8815C4.76248 22.5309 5.50394 27.7059 8.52762 31.9382C9.58365 33.4163 10.8387 34.6684 12.2303 35.6839C14.9556 37.6662 18.3101 38.8354 21.9369 38.8354C29.4286 38.8354 35.7598 33.8465 37.7807 27.0058C38.0675 26.0347 39.0872 25.4801 40.0583 25.7669C41.0294 26.0539 41.5839 27.0736 41.2971 28.0446C39.4847 34.1797 34.8357 39.0992 28.8669 41.2811C28.7714 41.3351 28.6697 41.3812 28.5622 41.4184C22.0962 43.6556 14.8755 42.4441 9.49382 38.2116C5.97953 35.4562 3.40222 31.5604 2.31807 27.0815C2.29255 26.9761 2.2767 26.8706 2.26996 26.766C1.02637 21.225 2.181 15.3551 5.47663 10.6887C9.1215 5.44516 15.1892 2.0116 22.0614 2.0116C29.9747 2.0116 36.8216 6.56411 40.1307 13.1917L40.5113 12.3931C40.947 11.4791 42.0412 11.0914 42.9552 11.5272C43.8692 11.9629 44.2568 13.057 43.8212 13.971L41.648 18.5293C41.5632 18.7072 41.4559 18.8672 41.3311 19.0073Z" fill="#01E0B5" fill-opacity="0.6"/>
</g>
<defs>
<clipPath id="clip0_1_214">
<rect width="44" height="44" fill="white" transform="translate(0 0.238281)"/>
</clipPath>
</defs>
</svg>
