<svg width="44" height="45" viewBox="0 0 44 45" fill="none" xmlns="http://www.w3.org/2000/svg">
<g clipPath="url(#clip0_1_226)">
<path fill-rule="evenodd" clip-rule="evenodd" d="M27.3143 42.0293C36.0356 37.7475 41.25 28.6594 41.25 18.9437V10.2224C41.25 8.87708 40.2777 7.72665 38.9655 7.43012C36.9328 6.97079 33.933 6.16771 31.625 5.02089C30.2611 4.3432 28.8973 3.54547 27.619 2.7978C25.2889 1.43488 23.2431 0.238281 22 0.238281C20.7569 0.238281 18.7111 1.43488 16.381 2.7978C15.1027 3.54547 13.7389 4.3432 12.375 5.02089C10.067 6.16771 7.06727 6.97079 5.03455 7.43012C3.72228 7.72665 2.75 8.87708 2.75 10.2224V18.939C2.75 28.6572 7.96712 37.747 16.6915 42.0282C19.2995 43.308 21.4027 44.2383 22.0053 44.2383C22.6078 44.2383 24.7088 43.3085 27.3143 42.0293ZM22 4.31073C22.0537 4.3318 22.1162 4.35741 22.1881 4.38844C22.6727 4.59786 23.3007 4.92785 24.1154 5.39047C24.5202 5.62037 24.9769 5.88745 25.4686 6.17499C26.7843 6.94442 28.3506 7.86043 29.845 8.60303L31.625 5.02089L29.8451 8.60304C32.2595 9.80278 35.1592 10.6315 37.25 11.1368V18.9437C37.25 27.2636 32.7907 34.8846 25.5515 38.4387L25.5514 38.4387C24.2731 39.0663 23.1736 39.5808 22.3486 39.9303C22.2227 39.9836 22.1084 40.0309 22.0051 40.0726C21.9013 40.0307 21.7864 39.9832 21.66 39.9297C20.834 39.58 19.7332 39.0651 18.4536 38.4372C11.2116 34.8835 6.75 27.261 6.75 18.939V11.1368C8.84084 10.6315 11.7405 9.80278 14.1549 8.60304L12.375 5.02089L14.155 8.60303C15.6494 7.86044 17.2157 6.94442 18.5314 6.175C19.0231 5.88745 19.4798 5.62037 19.8846 5.39047C20.6993 4.92785 21.3273 4.59786 21.812 4.38844C21.8838 4.35741 21.9463 4.3318 22 4.31073ZM22.9161 19.9466C22.9161 19.4403 22.5057 19.0299 21.9995 19.0299C21.4932 19.0299 21.0828 19.4403 21.0828 19.9466V20.4049C19.5641 20.4049 18.3324 21.6362 18.3324 23.1549C18.3324 24.6737 19.5636 25.9049 21.0824 25.9049H21.9996H22.916C23.4223 25.9049 23.8327 26.3153 23.8327 26.8217C23.8326 27.328 23.4222 27.7384 22.916 27.7384L19.7075 27.7383C19.2013 27.7383 18.7909 28.1488 18.7909 28.655C18.7909 29.1612 19.2013 29.5717 19.7075 29.5716H21.0828V30.0299C21.0828 30.5362 21.4932 30.9466 21.9995 30.9466C22.5057 30.9466 22.9161 30.5361 22.9161 30.0299V29.5717C24.4348 29.5716 25.6659 28.3405 25.666 26.8219C25.6662 25.303 24.4349 24.0715 22.916 24.0715H21.9996H21.0823C20.5762 24.0715 20.1658 23.6611 20.1658 23.1549C20.1658 22.6487 20.5762 22.2383 21.0823 22.2383L24.2909 22.2384C24.7971 22.2384 25.2075 21.8279 25.2075 21.3217C25.2075 20.8154 24.7971 20.405 24.2909 20.4049H22.9161V19.9466Z" fill="#01E0B5" fill-opacity="0.6"/>
<path fill-rule="evenodd" clip-rule="evenodd" d="M16.7528 17.7181C16.7528 14.6456 19.2436 12.1549 22.3161 12.1549C25.3885 12.1549 27.8793 14.6456 27.8793 17.7181V18.5011C29.079 18.81 29.9655 19.899 29.9655 21.1951V29.54C29.9655 31.0762 28.7201 32.3216 27.1839 32.3216H17.4482C15.912 32.3216 14.6666 31.0762 14.6666 29.54V21.1951C14.6666 19.899 15.5531 18.81 16.7528 18.5011V17.7181ZM19.5344 18.4135H25.0977V17.7181C25.0977 16.1819 23.8523 14.9365 22.3161 14.9365C20.7798 14.9365 19.5344 16.1819 19.5344 17.7181V18.4135Z" fill="#01E0B5"/>
</g>
<defs>
<clipPath id="clip0_1_226">
<rect width="44" height="44" fill="white" transform="translate(0 0.238281)"/>
</clipPath>
</defs>
</svg>
