<svg width="44" height="45" viewBox="0 0 44 45" fill="none" xmlns="http://www.w3.org/2000/svg">
<path d="M4.58332 16.7383C4.07707 16.7383 3.66666 17.1487 3.66666 17.6549V19.4883C3.66666 19.9946 4.07707 20.4049 4.58332 20.4049H5.49999L4.58332 35.0716H13.75L12.8333 20.4049H13.75C14.2563 20.4049 14.6667 19.9946 14.6667 19.4883V17.6549C14.6667 17.1487 14.2563 16.7383 13.75 16.7383H4.58332Z" fill="#01E0B5" fill-opacity="0.6"/>
<path d="M17.4167 16.7383C16.9104 16.7383 16.5 17.1487 16.5 17.6549V19.4883C16.5 19.9946 16.9104 20.4049 17.4167 20.4049H18.3333L17.4167 35.0716H26.5833L25.6667 20.4049H26.5833C27.0896 20.4049 27.5 19.9946 27.5 19.4883V17.6549C27.5 17.1487 27.0896 16.7383 26.5833 16.7383H17.4167Z" fill="#01E0B5" fill-opacity="0.6"/>
<path d="M31.1667 16.7383C30.6604 16.7383 30.25 17.1487 30.25 17.6549V19.4883C30.25 19.9946 30.6604 20.4049 31.1667 20.4049H32.0833L31.1667 35.0716H40.3333L39.4167 20.4049H40.3333C40.8396 20.4049 41.25 19.9946 41.25 19.4883V17.6549C41.25 17.1487 40.8396 16.7383 40.3333 16.7383H31.1667Z" fill="#01E0B5" fill-opacity="0.6"/>
<path d="M0.935203 35.8587C0.999718 35.4071 1.38648 35.0717 1.84266 35.0717H42.1574C42.6136 35.0717 43.0003 35.4071 43.0648 35.8587L43.8506 41.3587C43.9294 41.9109 43.501 42.405 42.9431 42.405H1.05695C0.499111 42.405 0.0706016 41.9109 0.149491 41.3587L0.935203 35.8587Z" fill="#01E0B5"/>
<path fill-rule="evenodd" clip-rule="evenodd" d="M0.655801 8.41138C0.266792 8.52686 0 8.88435 0 9.29014V13.9885C0 14.4948 0.410404 14.9052 0.916666 14.9052H43.0833C43.5896 14.9052 44 14.4948 44 13.9885V9.28994C44 8.88425 43.7333 8.52681 43.3445 8.41125L23.5772 2.53718C22.5554 2.23352 21.4673 2.23337 20.4453 2.53674L0.655801 8.41138ZM22 12.1552C23.5188 12.1552 24.75 10.924 24.75 9.40517C24.75 7.88641 23.5188 6.6552 22 6.6552C20.4812 6.6552 19.25 7.88641 19.25 9.40517C19.25 10.924 20.4812 12.1552 22 12.1552Z" fill="#01E0B5"/>
</svg>
