<svg width="43" height="45" viewBox="0 0 43 45" fill="none" xmlns="http://www.w3.org/2000/svg">
<g clipPath="url(#clip0_1_250)">
<path d="M14.8739 27.5623C7.64744 27.5623 1.78925 33.7865 1.78925 41.4646C1.78925 42.677 2.71422 43.6598 3.85524 43.6598H28.3412C29.4822 43.6598 30.4071 42.677 30.4071 41.4646C30.4071 33.7865 24.5489 27.5623 17.3225 27.5623H14.8739Z" fill="#01E0B5" fill-opacity="0.6"/>
<path d="M23.2522 17.7248C23.2522 21.6761 20.0491 24.8793 16.0978 24.8793C12.1465 24.8793 8.9433 21.6761 8.9433 17.7248C8.9433 13.7735 12.1465 10.5703 16.0978 10.5703C20.0491 10.5703 23.2522 13.7735 23.2522 17.7248Z" fill="#01E0B5" fill-opacity="0.6"/>
<path d="M7.15447 17.7248C7.15447 12.7856 11.1584 8.78166 16.0976 8.78166C21.0367 8.78166 25.0406 12.7856 25.0406 17.7248H26.8293C26.8293 11.7978 22.0245 6.99304 16.0976 6.99304C10.1706 6.99304 5.36584 11.7978 5.36584 17.7248H7.15447Z" fill="#01E0B5"/>
<path d="M1.7887 18.6191C1.7887 16.6434 3.39028 15.0419 5.36593 15.0419H6.61883C6.91518 15.0419 7.15542 15.282 7.15542 15.5785V21.6598C7.15542 21.9562 6.91518 22.1964 6.61883 22.1964H5.3668C3.39115 22.1964 1.7887 20.5947 1.7887 18.6191Z" fill="#01E0B5"/>
<path d="M30.4074 18.6193C30.4074 16.6436 28.8058 15.042 26.8302 15.042H25.5773C25.281 15.042 25.0407 15.2823 25.0407 15.5786V21.66C25.0407 21.9563 25.281 22.1966 25.5773 22.1966H26.8294C28.805 22.1966 30.4074 20.5949 30.4074 18.6193Z" fill="#01E0B5"/>
<path d="M25.9357 21.302H16.9926" stroke="#01E0B5" stroke-width="2" stroke-linecap="round"/>
<path fill-rule="evenodd" clip-rule="evenodd" d="M33.9847 13.2532C37.442 13.2532 40.2448 10.4505 40.2448 6.99307C40.2448 3.53568 37.442 0.73291 33.9847 0.73291C30.5273 0.73291 27.7245 3.53568 27.7245 6.99307C27.7245 10.4505 30.5273 13.2532 33.9847 13.2532ZM35.0579 4.33613C35.0579 3.74344 34.5773 3.26296 33.9847 3.26296C33.392 3.26296 32.9116 3.74344 32.9116 4.33613V7.01905V8.09222H33.9847H35.7733C36.366 8.09222 36.8464 7.61175 36.8464 7.01905C36.8464 6.42636 36.366 5.94588 35.7733 5.94588H35.0579V4.33613Z" fill="#01E0B5"/>
</g>
<defs>
<clipPath id="clip0_1_250">
<rect width="42.9268" height="44" fill="white" transform="translate(0 0.238281)"/>
</clipPath>
</defs>
</svg>
