<svg width="44" height="45" viewBox="0 0 44 45" fill="none" xmlns="http://www.w3.org/2000/svg">
<path fill-rule="evenodd" clip-rule="evenodd" d="M1.83337 3.88436C1.83337 2.87184 2.65418 2.05103 3.66671 2.05103H25.6667C26.6793 2.05103 27.5 2.87184 27.5 3.88436V7.55103C27.5 8.56355 26.6793 9.38436 25.6667 9.38436H3.66671C2.65418 9.38436 1.83337 8.56355 1.83337 7.55103V3.88436ZM3.66671 11.2177C2.65418 11.2177 1.83337 12.0385 1.83337 13.051V16.7177C1.83337 17.7302 2.65418 18.551 3.66671 18.551H23.3858C24.6388 17.8276 26.0165 17.2963 27.4789 16.9971C27.4928 16.9059 27.5 16.8127 27.5 16.7177V13.051C27.5 12.0385 26.6793 11.2177 25.6667 11.2177H3.66671ZM16.5301 29.551C16.5101 29.854 16.5 30.1597 16.5 30.4677C16.5 32.7852 17.0734 34.9688 18.086 36.8843H3.66671C2.65418 36.8843 1.83337 36.0635 1.83337 35.051V31.3843C1.83337 30.3719 2.65418 29.551 3.66671 29.551H16.5301ZM20.9018 20.3843C18.8343 22.3019 17.3577 24.8475 16.7751 27.7177H3.66671C2.65418 27.7177 1.83337 26.8969 1.83337 25.8843V22.2177C1.83337 21.2052 2.65418 20.3843 3.66671 20.3843H20.9018Z" fill="#01E0B5" fill-opacity="0.6"/>
<path fill-rule="evenodd" clip-rule="evenodd" d="M30.25 42.3844C36.8314 42.3844 42.1667 37.0491 42.1667 30.4677C42.1667 23.8863 36.8314 18.551 30.25 18.551C23.6686 18.551 18.3334 23.8863 18.3334 30.4677C18.3334 37.0491 23.6686 42.3844 30.25 42.3844ZM26.5771 25.905C26.0709 25.905 25.6605 26.3154 25.6605 26.8216C25.6605 27.3279 26.0709 27.7383 26.5771 27.7383C27.0833 27.7383 27.4938 27.3279 27.4938 26.8216C27.4938 26.3154 27.0833 25.905 26.5771 25.905ZM23.8271 26.8216C23.8271 25.3028 25.0583 24.0716 26.5771 24.0716C28.0959 24.0716 29.3271 25.3028 29.3271 26.8216C29.3271 28.3405 28.0959 29.5716 26.5771 29.5716C25.0583 29.5716 23.8271 28.3405 23.8271 26.8216ZM36.1691 25.8452C36.5271 25.4873 36.5271 24.9068 36.1691 24.5489C35.8111 24.1909 35.2307 24.1909 34.8727 24.5489L24.331 35.0905C23.9731 35.4485 23.9731 36.0289 24.331 36.3869C24.6891 36.7448 25.2694 36.7448 25.6275 36.3869L36.1691 25.8452ZM33.0502 34.1849C33.0502 33.6786 33.4606 33.2682 33.9668 33.2682C34.4731 33.2682 34.8835 33.6786 34.8835 34.1849C34.8835 34.6911 34.4731 35.1015 33.9668 35.1015C33.4606 35.1015 33.0502 34.6911 33.0502 34.1849ZM33.9668 31.4349C32.4481 31.4349 31.2168 32.6661 31.2168 34.1849C31.2168 35.7037 32.4481 36.9349 33.9668 36.9349C35.4857 36.9349 36.7168 35.7037 36.7168 34.1849C36.7168 32.6661 35.4857 31.4349 33.9668 31.4349Z" fill="#01E0B5"/>
</svg>
