<svg width="131" height="45" viewBox="0 0 131 45" fill="none" xmlns="http://www.w3.org/2000/svg">
<g clipPath="url(#clip0_1_284)">
<path d="M55.3587 22.62C55.3587 28.7274 50.5809 33.2278 44.7174 33.2278C38.8539 33.2278 34.0761 28.7274 34.0761 22.62C34.0761 16.4696 38.8539 12.0122 44.7174 12.0122C50.5809 12.0122 55.3587 16.4696 55.3587 22.62ZM50.7005 22.62C50.7005 18.8035 47.9313 16.1922 44.7174 16.1922C41.5035 16.1922 38.7344 18.8035 38.7344 22.62C38.7344 26.3983 41.5035 29.0478 44.7174 29.0478C47.9313 29.0478 50.7005 26.3935 50.7005 22.62Z" fill="#EA4335"/>
<path d="M78.3152 22.62C78.3152 28.7274 73.5374 33.2278 67.6739 33.2278C61.8104 33.2278 57.0326 28.7274 57.0326 22.62C57.0326 16.4744 61.8104 12.0122 67.6739 12.0122C73.5374 12.0122 78.3152 16.4696 78.3152 22.62ZM73.6569 22.62C73.6569 18.8035 70.8878 16.1922 67.6739 16.1922C64.46 16.1922 61.6909 18.8035 61.6909 22.62C61.6909 26.3983 64.46 29.0478 67.6739 29.0478C70.8878 29.0478 73.6569 26.3935 73.6569 22.62Z" fill="#FBBC05"/>
<path d="M100.315 12.653V31.6974C100.315 39.5313 95.6952 42.7309 90.2335 42.7309C85.0922 42.7309 81.9978 39.2922 80.8309 36.48L84.8865 34.7917C85.6087 36.5183 87.3783 38.5557 90.2287 38.5557C93.7248 38.5557 95.8913 36.3987 95.8913 32.3383V30.8126H95.7287C94.6861 32.0991 92.6774 33.223 90.1426 33.223C84.8387 33.223 79.9796 28.603 79.9796 22.6583C79.9796 16.6704 84.8387 12.0122 90.1426 12.0122C92.6726 12.0122 94.6813 13.1361 95.7287 14.3843H95.8913V12.6578H100.315V12.653ZM96.2213 22.6583C96.2213 18.923 93.7296 16.1922 90.5587 16.1922C87.3448 16.1922 84.6522 18.923 84.6522 22.6583C84.6522 26.3552 87.3448 29.0478 90.5587 29.0478C93.7296 29.0478 96.2213 26.3552 96.2213 22.6583Z" fill="#4285F4"/>
<path d="M107.609 1.49045V32.5774H103.065V1.49045H107.609Z" fill="#34A853"/>
<path d="M125.314 26.1113L128.93 28.5218C127.763 30.2483 124.95 33.2231 120.091 33.2231C114.065 33.2231 109.565 28.5648 109.565 22.6152C109.565 16.307 114.103 12.0074 119.57 12.0074C125.075 12.0074 127.767 16.3883 128.647 18.7557L129.13 19.9609L114.95 25.8339C116.036 27.9622 117.724 29.0478 120.091 29.0478C122.463 29.0478 124.109 27.8809 125.314 26.1113ZM114.185 22.2948L123.664 18.3587C123.143 17.0339 121.574 16.1109 119.728 16.1109C117.36 16.1109 114.065 18.2009 114.185 22.2948Z" fill="#EA4335"/>
<path d="M16.8778 19.8605V15.36H32.0435C32.1917 16.1444 32.2683 17.0722 32.2683 18.0765C32.2683 21.4531 31.3452 25.6283 28.3704 28.6031C25.477 31.6161 21.78 33.2231 16.8826 33.2231C7.80522 33.2231 0.17218 25.8292 0.17218 16.7518C0.17218 7.67437 7.80522 0.280457 16.8826 0.280457C21.9044 0.280457 25.4817 2.25089 28.1696 4.81915L24.9939 7.9948C23.0665 6.18698 20.4552 4.78089 16.8778 4.78089C10.2491 4.78089 5.06479 10.1231 5.06479 16.7518C5.06479 23.3805 10.2491 28.7226 16.8778 28.7226C21.1774 28.7226 23.6261 26.9961 25.1948 25.4274C26.467 24.1552 27.3039 22.3378 27.6339 19.8557L16.8778 19.8605Z" fill="#4285F4"/>
</g>
<defs>
<clipPath id="clip0_1_284">
<rect width="130.087" height="44" fill="white" transform="translate(0 0.0556641)"/>
</clipPath>
</defs>
</svg>
