<svg width="108" height="45" viewBox="0 0 108 45" fill="none" xmlns="http://www.w3.org/2000/svg">
<g clipPath="url(#clip0_1_276)">
<path d="M19.5928 5.72836C18.3368 7.21456 16.3273 8.38678 14.3178 8.21932C14.0666 6.2098 15.0504 4.07469 16.2017 2.75595C17.4577 1.22788 19.6556 0.139394 21.4348 0.0556641C21.6441 2.14891 20.8278 4.20029 19.5928 5.72836ZM21.4139 8.61703C18.5043 8.44957 16.0133 10.2707 14.6318 10.2707C13.2293 10.2707 11.1151 8.70076 8.81256 8.74263C5.81922 8.78449 3.0352 10.48 1.50713 13.1803C-1.63273 18.5809 0.690769 26.5771 3.72597 30.9729C5.21218 33.1499 6.99143 35.5362 9.33587 35.4524C11.5547 35.3687 12.4339 34.0081 15.1132 34.0081C17.8135 34.0081 18.588 35.4524 20.9324 35.4106C23.3606 35.3687 24.8887 33.2336 26.3749 31.0566C28.0704 28.5866 28.7612 26.1794 28.803 26.0538C28.7612 26.0119 24.1142 24.2326 24.0723 18.8739C24.0304 14.3944 27.7355 12.2593 27.9029 12.1337C25.8097 9.03568 22.5442 8.70076 21.4139 8.61703ZM38.2226 2.54662V35.1803H43.2883V24.0233H50.3007C56.706 24.0233 61.2065 19.6275 61.2065 13.264C61.2065 6.90057 56.7897 2.54662 50.4681 2.54662H38.2226ZM43.2883 6.81684H49.1284C53.5243 6.81684 56.0362 9.16128 56.0362 13.285C56.0362 17.4087 53.5243 19.774 49.1075 19.774H43.2883V6.81684ZM70.4586 35.4315C73.6403 35.4315 76.5918 33.8197 77.9315 31.2659H78.0361V35.1803H82.725V18.9367C82.725 14.2269 78.9572 11.1917 73.1589 11.1917C67.7793 11.1917 63.8021 14.2688 63.6556 18.4971H68.2188C68.5956 16.4876 70.4586 15.1689 73.0124 15.1689C76.1104 15.1689 77.8478 16.6132 77.8478 19.2716V21.0718L71.5262 21.4486C65.6441 21.8045 62.4624 24.2117 62.4624 28.3982C62.4624 32.6265 65.7488 35.4315 70.4586 35.4315ZM71.8192 31.559C69.1189 31.559 67.4025 30.2612 67.4025 28.2726C67.4025 26.2212 69.0561 25.0281 72.2169 24.8397L77.8478 24.4838V26.3259C77.8478 29.382 75.2521 31.559 71.8192 31.559ZM88.9838 44.0557C93.9239 44.0557 96.2474 42.1717 98.2778 36.4572L107.174 11.5057H102.025L96.059 30.7845H95.9543L89.9886 11.5057H84.6927L93.275 35.264L92.8145 36.7084C92.04 39.1575 90.784 40.0994 88.5442 40.0994C88.1465 40.0994 87.372 40.0576 87.058 40.0157V43.9301C87.3511 44.0138 88.607 44.0557 88.9838 44.0557Z" fill="black"/>
</g>
<defs>
<clipPath id="clip0_1_276">
<rect width="107.174" height="44" fill="white" transform="translate(0 0.0556641)"/>
</clipPath>
</defs>
</svg>
