<svg width="261" height="45" viewBox="0 0 261 45" fill="none" xmlns="http://www.w3.org/2000/svg">
<g clipPath="url(#clip0_1_297)">
<path d="M76.9265 36.2685L74.1347 31.4342C75.4399 28.9324 75.4399 25.9835 75.4399 22.1039C75.4399 17.2696 75.4399 13.6439 72.6481 10.707C71.6861 9.65733 70.506 8.831 69.1906 8.28605C67.8752 7.7411 66.4565 7.49076 65.034 7.5526C63.6155 7.5213 62.2059 7.78559 60.8951 8.32866C59.5842 8.87172 58.4008 9.68168 57.4199 10.707C54.6281 13.5109 54.6281 17.0641 54.6281 22.0556C54.6281 27.047 54.4831 30.5157 57.4199 33.4404C58.3932 34.4812 59.5752 35.3049 60.8886 35.8576C62.2021 36.396 63.6155 36.6474 65.034 36.5948C65.8278 36.5832 66.6179 36.486 67.3908 36.3048L76.9265 36.2685ZM61.3841 30.0443C60.3689 28.8357 60.0788 27.5305 60.0788 22.0556C60.0788 16.5807 60.4293 15.2392 61.3841 14.0669C61.8487 13.6032 62.3987 13.2339 63.0036 12.9791C63.6035 12.7236 64.249 12.592 64.9011 12.5924C65.557 12.5933 66.2061 12.7248 66.8106 12.9791C67.4119 13.2341 67.9578 13.6036 68.4181 14.0669C69.4333 15.2754 69.7233 16.5807 69.7233 22.0556C69.7233 27.5305 69.4333 28.8599 68.4181 30.0443C67.9687 30.521 67.4255 30.8996 66.8227 31.1562C66.2113 31.3979 65.5584 31.5169 64.9011 31.5067C64.2463 31.5198 63.5959 31.3963 62.9915 31.1441C62.3866 30.8904 61.8397 30.5162 61.3841 30.0443Z" fill="#1B1917"/>
<path d="M141.198 7.8425H146.601V36.2684H141.198V7.8425Z" fill="#1B1917"/>
<path d="M10.2609 36.559C6.04291 36.559 2.80391 35.6767 0 32.8607L3.51698 29.3075C4.42564 30.136 5.48947 30.7761 6.64701 31.191C7.80454 31.6059 9.03282 31.7873 10.2609 31.7247C13.4878 31.7247 15.2402 30.5161 15.2402 28.1714C15.2569 27.735 15.1871 27.2996 15.0348 26.8903C14.8872 26.4847 14.6567 26.1142 14.358 25.8026C13.6587 25.2018 12.7871 24.8379 11.8683 24.7632L8.46008 24.2919C6.43788 24.1198 4.53361 23.2678 3.05771 21.8747C2.37898 21.1212 1.85353 20.2427 1.51073 19.2883C1.14993 18.3195 0.989578 17.2875 1.03938 16.2548C1.01521 11.2513 4.67722 7.69803 10.8772 7.69803C14.6843 7.69803 17.6211 8.56821 19.9779 10.9491L16.4246 14.3694C15.6588 13.6607 14.7543 13.1186 13.7682 12.7774C12.7821 12.4363 11.736 12.3034 10.696 12.3873C7.7591 12.3873 6.3088 14.031 6.3088 16.0131C6.33206 16.7826 6.64248 17.5155 7.17898 18.0677C7.93862 18.6979 8.85204 19.1149 9.82578 19.2763L13.1977 19.7113C15.2124 19.7658 17.1361 20.562 18.6001 21.9472C19.35 22.7607 19.9331 23.7133 20.3163 24.7511C20.6911 25.8007 20.8594 26.9129 20.8118 28.0264C20.8118 33.4771 16.1346 36.5952 10.2488 36.5952" fill="#1B1917"/>
<path d="M28.7034 36.2684V7.8425H47.3035V12.6768H34.2508V19.3845H45.3698V24.4726H34.2629V31.4461H47.3156V36.2805H28.7034" fill="#1B1917"/>
<path d="M94.0401 36.5584C88.3114 36.5584 83.6342 32.5701 83.6342 26.503V7.8425H89.2299V26.3338C89.2299 29.597 91.1515 31.5066 94.0642 31.5066C96.9769 31.5066 98.8986 29.5607 98.8986 26.3338V7.8425H104.301V26.4788C104.301 32.5218 99.805 36.5343 94.0763 36.5343" fill="#1B1917"/>
<path d="M130.358 33.4404C129.394 34.4879 128.214 35.312 126.899 35.8548C125.583 36.3977 124.165 36.6461 122.743 36.5828C121.327 36.6214 119.918 36.3616 118.608 35.8202C117.299 35.2789 116.117 34.4681 115.141 33.4404C112.398 30.6244 112.398 27.0712 112.398 22.0556C112.398 17.04 112.253 13.5955 115.202 10.6707C116.156 9.63263 117.325 8.81564 118.628 8.27701C119.93 7.73837 121.335 7.49113 122.743 7.55259C124.159 7.53274 125.565 7.80107 126.873 8.34126C128.182 8.88146 129.368 9.68224 130.358 10.6949C133.149 13.5109 133.149 17.0641 133.149 22.0798C133.149 27.0954 133.149 30.5157 130.358 33.4404ZM126.26 14.1031C125.801 13.6394 125.254 13.2713 124.651 13.0201C124.049 12.7689 123.402 12.6396 122.75 12.6396C122.097 12.6396 121.45 12.7689 120.848 13.0201C120.245 13.2713 119.698 13.6394 119.239 14.1031C118.211 15.3117 117.933 16.617 117.933 22.0918C117.933 27.5667 118.211 28.8962 119.239 30.0685C119.697 30.5351 120.243 30.9058 120.846 31.1589C121.449 31.4119 122.096 31.5422 122.75 31.5422C123.403 31.5422 124.051 31.4119 124.653 31.1589C125.256 30.9058 125.803 30.5351 126.26 30.0685C127.276 28.8599 127.566 27.5667 127.566 22.0918C127.566 16.617 127.312 15.2392 126.26 14.0669V14.1031Z" fill="#1B1917"/>
<path d="M172.562 36.2684L170.954 31.2407H160.983L159.243 36.2684H153.49L163.787 7.8425H167.993L178.254 36.2684H172.562ZM165.951 16.1213L162.434 26.4788H169.468L165.951 16.1213Z" fill="#1B1917"/>
<path d="M210.511 7.8425H217.545V14.949H210.511V7.8425Z" fill="#11925F"/>
<path d="M192.926 30.1529V7.8425H189.409V33.7424L192.926 30.1529Z" fill="#11925F"/>
<path d="M195.392 32.715L191.875 36.2683H217.545V32.715H195.392Z" fill="#11925F"/>
<path d="M199.961 23.0827V7.8425H196.444V26.636L199.961 23.0827Z" fill="#11925F"/>
<path d="M202.425 25.6089L198.896 29.1621H217.545V25.6089H202.425Z" fill="#11925F"/>
<path d="M206.982 16.0125V7.8425H203.465V19.5295L206.982 16.0125Z" fill="#11925F"/>
<path d="M209.46 18.5027L205.955 22.0559H217.545V18.5027H209.46Z" fill="#11925F"/>
</g>
<defs>
<clipPath id="clip0_1_297">
<rect width="217.545" height="29.006" fill="white" transform="translate(0 7.55255)"/>
</clipPath>
</defs>
</svg>
